# xmcd
#
# Track frame offsets: 
#        150
#        20347
#        45086
#        65937
#        80362
#        101630
#        124834
#        148739
#        168860
#        187506
#
# Disc length: 2949 seconds
#
# Revision: 1
# Processed by: cddbd v1.5.2PL0 Copyright (c) Steve Scherf et al.
# Submitted via: ExactAudioCopy v0.99pb5
#
DISCID=790b830a
DTITLE=Willy's NYC Salsa Project - Lo que traigo yo
DYEAR=2008
DGENRE=Salsa
TTITLE0=a las seis
TTITLE1=rompe saraguey
TTITLE2=baila con sabor
TTITLE3=fajarden~o pa' mi tierra
TTITLE4=yambeque
TTITLE5=lo que traigo yo
TTITLE6=si te preguntan
TTITLE7=la muerte
TTITLE8=el ultimo dia de abril
TTITLE9=the fireman
EXTD=YEAR: 2008
EXTT0=
EXTT1=
EXTT2=
EXTT3=
EXTT4=
EXTT5=
EXTT6=
EXTT7=
EXTT8=
EXTT9=
PLAYORDER=
